<svg width="100" height="100" viewBox="0 0 100 100" fill="none" xmlns="http://www.w3.org/2000/svg">
<rect x="2.5" y="2.5" width="95" height="95" rx="9.5" fill="url(#paint0_linear_1_1252)" stroke="url(#paint1_linear_1_1252)" stroke-width="5"/>
<path fill-rule="evenodd" clip-rule="evenodd" d="M23.75 23.75L28.125 19.375H67.5L71.875 23.75V76.25L67.5 80.625H28.125L23.75 76.25V23.75ZM28.125 23.75V76.25H67.5V23.75H28.125ZM32.5 32.5L36.875 28.125H58.75L63.125 32.5V36.875L58.75 41.25H36.875L32.5 36.875V32.5ZM36.875 32.5V36.875H58.75V32.5H36.875ZM80.625 36.875H76.25V45.625H80.625V36.875ZM76.25 50H80.625V58.75H76.25V50ZM80.625 63.125H76.25V71.875H80.625V63.125Z" fill="white"/>
<defs>
<linearGradient id="paint0_linear_1_1252" x1="0" y1="0" x2="100" y2="100" gradientUnits="userSpaceOnUse">
<stop stop-color="#316990"/>
<stop offset="1" stop-color="#67BC7D"/>
</linearGradient>
<linearGradient id="paint1_linear_1_1252" x1="-1.82092e-07" y1="3" x2="100" y2="96.5" gradientUnits="userSpaceOnUse">
<stop stop-color="#62B47E"/>
<stop offset="1" stop-color="#316990"/>
</linearGradient>
</defs>
</svg>
